<?xml version="1.0" encoding="utf-8"?>
<!-- Generator: Adobe Illustrator 23.0.3, SVG Export Plug-In . SVG Version: 6.00 Build 0)  -->
<svg version="1.1"
	 id="svg7802" inkscape:version="0.48.5 r10040" sodipodi:docname="Pepsi_Cola_logo_1940.svg" xmlns:cc="http://creativecommons.org/ns#" xmlns:dc="http://purl.org/dc/elements/1.1/" xmlns:inkscape="http://www.inkscape.org/namespaces/inkscape" xmlns:rdf="http://www.w3.org/1999/02/22-rdf-syntax-ns#" xmlns:sodipodi="http://sodipodi.sourceforge.net/DTD/sodipodi-0.dtd" xmlns:svg="http://www.w3.org/2000/svg"
	 xmlns="http://www.w3.org/2000/svg" xmlns:xlink="http://www.w3.org/1999/xlink" x="0px" y="0px" viewBox="0 0 225.9 124"
	 style="enable-background:new 0 0 225.9 124;" xml:space="preserve">
<g>
	<path d="M149.9,89.4c-2.3,0-4.2,1.9-4.3,4.3c0,2.4,1.9,4.3,4.3,4.3c2.4,0,4.3-1.9,4.3-4.3C154.2,91.3,152.3,89.4,149.9,89.4z
		 M152.1,96.1l-1.3-1.7c0.8-0.3,1.2-0.9,1.2-1.6c0-0.9-0.5-1.7-1.7-1.7h-2.1v5.2h1v-1.8h0.4l1.3,1.8h1c-0.6,0.4-1.2,0.7-2,0.7
		c-1.8,0-3.2-1.5-3.3-3.3c0-1.8,1.5-3.3,3.3-3.3c1.9,0,3.3,1.5,3.3,3.3C153.2,94.7,152.8,95.5,152.1,96.1z M150.7,92.7
		c0,0.4-0.3,0.6-0.6,0.6h-0.9V92l0.9,0.1C150.5,92.1,150.7,92.5,150.7,92.7z"/>
	<g>
		<path d="M81.8,42.8c-1.4-29.7-57.4-17.2-70.6,6.5c-11,19.7-2.3,30,8.2,30.4c4,0,8.4-1.7,9.8-4.2c-13,0.9-9.9-15.9-6.3-23.6
			c5.4-11.6,22.5-18.6,27.4-19c22.3-1.6,22.7,23.4,1.1,24.2c-2.2-7.4,2.4-17,5-21.4c-20.5-0.6-20.2,23.8-18.9,38.7
			c1.8,22.2-1.5,38.9-13.2,41.4c-7.3,1.6-13.6,0-14.9-4.6c10.2,5.8,20.9-4.8,13.6-12.1c-7.1-7-25.6-1.2-22.6,10.6
			c3.7,14.9,19.3,16.9,32.9,11.9c9.6-3.5,16.8-13.6,17-24.4l0.6-34.3C67.6,64.3,82.2,55.4,81.8,42.8z"/>
		<path d="M74,73.7c-0.2-2.7-0.1-6-0.3-8.7c-4.1,0.9-12,1.8-17.3,2.6l0.1,30.8c8.3-1,16.5-1.7,18.8-2.8l-1-8.7c0,0-1,1.3-1.9,1.8
			c-2.4,0.2-4.4,0.4-6.8,0.7c-0.2-1.3-0.3-2.9-0.5-4.3c2-0.2,4.4-0.5,6.3-0.9c0.4,0.1,1.1,0.3,1.5,0.8c0-2.6,0.1-6.1,0.3-8.8
			c-0.5,0.4-1.1,0.8-1.8,1c-1.8,0.4-4.2,0.5-6.2,1l-0.3-4.3c2.8,0,5.2-0.6,8.1-0.8C73.4,73.3,74,73.7,74,73.7z"/>
		<path d="M76.7,64.1c0.8,0.7,1.3,1.5,1.3,1.5l0.8,28.3c-0.2,0.3-0.9,1.1-0.9,1.1l10.5-1.6c0,0-1-0.7-1.3-1.3l-1.3-9
			C96.8,82,100.4,75.5,99,69C97.6,62.5,90.6,58.4,76.7,64.1z M86.2,74.5l-0.5-5.4C91.9,66.4,93.2,74.4,86.2,74.5z"/>
		<path d="M115.8,62.4V50.7c-0.6,0.6-1.3,1.2-2.4,1.3c-4.8,0.1-8.2,1.8-10.2,3.3c-7.5,5.5-3.3,16.3,1.8,18.3
			c10.2,2.5,2.2,10.9-5.7,4.5v12.2c1-1.4,2.6-1.4,2.6-1.4c9.5,1,16.4-3.9,16.4-11.8c0.1-4.8-3.6-8.5-5.9-9.2
			C103.7,65.1,109.6,57.7,115.8,62.4z"/>
		<path d="M117.9,50.1c0,0,1.1,0.2,1.8,1.5l0.9,27.7c-0.3,1.3-1.8,3.5-1.8,3.5l12.3-4.4c-1-0.3-1.8-0.5-2.2-1.7l-1-28.1
			c0-1.3,0.9-2.4,0.9-2.4L117.9,50.1z"/>
		<polygon points="135.7,53.9 129.9,56.4 130.6,63.8 136.6,61.6 		"/>
		<path d="M199.6,59.9c-10,0.8-27.9,6.1-41,11c-15.4-23.4-4.8-59.4,22.2-64.6c-9,7-3,14,5.3,13.7c6.5-0.2,14.3-3.5,12.9-10.3
			c-1.2-6.4-8.5-9.7-16-9.5c-7.5,0.1-16,3-23.4,5.7c-20.6,7.6-40.4,26.8-65.7,26.8c5.4,11.8,18.9,9.1,30.2,3
			c11.1-6,20.8-16.2,28.9-19.6c-19.2,18.4-20.1,42.7-7.8,60.6c-15.6,8.8-30.8,15.9-46.2,20.7s-31,7.2-47.2,6.6
			c7.9,15.1,26.6,13.7,46.3,6.6s40.6-19.8,52.8-27.4c25.1,22,71.4,6.2,69.5-13.2C219.7,62.9,210.5,59,199.6,59.9z M163.4,77.1
			c10.1-4.5,22.7-8.8,32-8.7c6.3,0,10.9,1.9,11.8,6.6C208.9,84.5,176.4,92.1,163.4,77.1z"/>
		<path d="M169.3,27.3l-1.7,0.1c-14.6,3.9-16.5,34.2-1.1,34.8C185.5,62.9,185.9,26.6,169.3,27.3z M172.3,45.7
			c-0.2,4-2.1,7.5-3.7,7.5c-2.3,0-3.9-2.5-3.9-5.9c-0.1-5.4,1.4-11.3,4.3-11.3C171.2,36,172.4,42.3,172.3,45.7z"/>
		<path d="M181.7,56.9c4.6-0.9,10.9-2.8,16.2-3c0.1-3,0.4-6.1,0.8-9c-1.3,1.7-4.5,1.3-6.3,2.2V24.3c0.1-0.9,1.3-1.8,1.3-1.8
			l-11.9,2.4c0.7,0.3,1.3,0.6,1.4,1.5V55C183.2,55,182.4,56.5,181.7,56.9z"/>
		<path d="M199.7,53.3c-0.2,0.1-0.4,0.2-0.6,0.4c2.6-0.1,7.1-0.1,8.9,0.5c0,0-0.4-0.7-0.6-0.9l0.7-4.6l7.2,1.6V54
			c-0.5,0.4-1,0.6-1.6,0.8c4.3,0.6,8.3,1.5,11.9,3.5c0,0-0.7-0.8-1-1.5c-0.3-3.3-3.4-22.3-5-32.7c0.2-0.2,0.5-0.4,0.7-0.8
			c-5-0.6-10.1-1.9-14.7-1.9c0.5,0.4,1.1,1.3,0.8,2.2L199.7,53.3z M213,35.4l1.2,6.4l-3.8-0.7L213,35.4z"/>
	</g>
</g>
</svg>
